<?xml version="1.0"?>
<svg xmlns="http://www.w3.org/2000/svg" xmlns:xlink="http://www.w3.org/1999/xlink" version="1.1" id="Capa_1" x="0px" y="0px" width="512px" height="512px" viewBox="0 0 561 561" style="enable-background:new 0 0 561 561;" xml:space="preserve" class=""><g transform="matrix(-1 0 0 1 561 0)"><g>
	<g id="photo-library">
		<path d="M561,408V51c0-28.05-22.95-51-51-51H153c-28.05,0-51,22.95-51,51v357c0,28.05,22.95,51,51,51h357    C538.05,459,561,436.05,561,408z M242.25,267.75l63.75,76.5l89.25-114.75L510,382.5H153L242.25,267.75z M0,102v408    c0,28.05,22.95,51,51,51h408v-51H51V102H0z" data-original="#000000" class="active-path" data-old_color="#000000" fill="#FFFFFF"/>
	</g>
</g></g> </svg>
