<?xml version="1.0" encoding="iso-8859-1"?>
<!-- Generator: Adobe Illustrator 19.0.0, SVG Export Plug-In . SVG Version: 6.00 Build 0)  -->
<svg version="1.1" id="Capa_1" xmlns="http://www.w3.org/2000/svg" xmlns:xlink="http://www.w3.org/1999/xlink" x="0px" y="0px"
	 viewBox="0 0 345.364 345.364" style="enable-background:new 0 0 345.364 345.364;" xml:space="preserve">
<g>
	<g>
		<path d="M308.882,11.6c-7.2-7.2-16.8-11.6-27.6-11.6h-217.2c-10.8,0-20.4,4.4-27.6,11.6s-11.6,16.8-11.6,27.6V256
			c0,10.8,4.4,20.4,11.6,27.6c7.2,6.8,16.8,11.2,27.6,11.2h54l15.6,19.2l0.4,0.4l18,22c3.6,4.4,8.8,7.2,14.8,8.4
			c5.2,1.2,11.2,0.4,16.8-1.6c2-0.8,3.6-1.6,5.2-2.8c1.2-0.8,2.4-2,3.6-3.2c0.4-0.4,0.4-0.4,0.8-0.8l18-22l0.4-0.4l15.6-19.2h54
			c10.8,0,20.4-4.4,27.6-11.6s11.6-16.8,11.6-27.6V39.2C320.482,28.4,316.082,18.8,308.882,11.6z M300.082,256c0,5.2-2,9.6-5.6,13.2
			c-3.2,3.2-8,5.6-13.2,5.6h-59.2c-3.6,0-6.4,1.6-8.4,4.4l-18,21.6l-0.4,0.4l-18.4,22.4c-0.4,0-0.4,0.4-0.8,0.4
			c-1.6,0.8-3.6,0.8-5.2,0.4c-1.2-0.4-2.4-0.8-2.8-1.2l-18-22l-0.4-0.4l-18-22c0-0.4-0.4-0.4-0.4-0.8c-2-2.8-5.2-4.4-8.4-4.4h-58.8
			c-5.2,0-9.6-2-13.2-5.6c-3.2-3.2-5.6-8-5.6-13.2V39.2h0.4c0-5.2,2-9.6,5.6-13.2c3.2-3.2,8-5.6,13.2-5.6h216.8
			c5.2,0,9.6,2,13.2,5.6c3.2,3.2,5.6,8,5.6,13.2V256z"/>
	</g>
</g>
<g>
	<g>
		<path d="M209.682,64c-9.6-9.6-22.8-15.2-37.2-15.2c-14.4,0-27.6,6-37.2,15.6c-9.6,9.6-15.6,22.8-15.6,37.2
			c0,14.4,6,27.6,15.6,37.2c9.6,9.2,22.8,15.2,37.2,15.2c14.4,0,27.6-6,37.2-15.6c9.6-9.6,15.6-22.8,15.6-37.2
			C225.282,86.8,219.282,73.6,209.682,64z M195.282,124.4c-6,6-14,9.6-22.8,9.6s-16.8-3.6-22.8-9.6c-6-6-9.6-14-9.6-22.8
			c0.4-9.2,4-17.2,9.6-22.8c6-6,14-9.6,22.8-9.6s16.8,3.6,22.8,9.6s9.6,14,9.6,22.8S201.282,118.4,195.282,124.4z"/>
	</g>
</g>
<g>
	<g>
		<path d="M242.082,177.2c-18-10.8-42.4-17.6-69.2-17.6c-26.8,0-51.6,6.8-69.2,17.6c-19.6,12-31.6,28.8-31.6,47.6v9.6
			c-0.4,5.6,4.4,10.4,10,10.4h181.2c5.6,0,10.4-4.4,10.4-10.4v-9.6C273.682,205.6,261.682,188.8,242.082,177.2z M92.082,224.4
			c0.4-11.2,8.8-21.6,21.6-29.6c14.8-9.2,35.6-14.8,58.8-14.8s44,5.6,58.8,14.8c13.2,8,21.2,18.4,21.6,29.6H92.082z"/>
	</g>
</g>
<g>
</g>
<g>
</g>
<g>
</g>
<g>
</g>
<g>
</g>
<g>
</g>
<g>
</g>
<g>
</g>
<g>
</g>
<g>
</g>
<g>
</g>
<g>
</g>
<g>
</g>
<g>
</g>
<g>
</g>
</svg>
